<svg xmlns:dc="http://purl.org/dc/elements/1.1/" xmlns:cc="http://creativecommons.org/ns#" xmlns:rdf="http://www.w3.org/1999/02/22-rdf-syntax-ns#" xmlns:svg="http://www.w3.org/2000/svg" xmlns="http://www.w3.org/2000/svg" xmlns:xlink="http://www.w3.org/1999/xlink" id="svg591796" viewBox="0 0 1024 768" height="768px" width="1024px" version="1.1">
    <metadata id="metadata591802">
        <rdf:rdf>
            <cc:work rdf:about="">
                <dc:format>image/svg+xml</dc:format>
                <dc:type rdf:resource="http://purl.org/dc/dcmitype/StillImage"></dc:type>
            </cc:work>
        </rdf:rdf>
    </metadata>
    <defs id="defs591800"></defs>
    <linearGradient spreadMethod="pad" y2="30%" x2="-10%" y1="120%" x1="30%" id="3d_gradient2-logo-1a0d6213-dd03-4516-8334-a4ffd387c44d">
        <stop id="stop591777" stop-opacity="1" stop-color="#ffffff" offset="0%"></stop>
        <stop id="stop591779" stop-opacity="1" stop-color="#000000" offset="100%"></stop>
    </linearGradient>
    <linearGradient gradientTransform="rotate(-30)" spreadMethod="pad" y2="30%" x2="-10%" y1="120%" x1="30%" id="3d_gradient3-logo-1a0d6213-dd03-4516-8334-a4ffd387c44d">
        <stop id="stop591782" stop-opacity="1" stop-color="#ffffff" offset="0%"></stop>
        <stop id="stop591784" stop-opacity="1" stop-color="#cccccc" offset="50%"></stop>
        <stop id="stop591786" stop-opacity="1" stop-color="#000000" offset="100%"></stop>
    </linearGradient>
    <g id="logo-group">
        <image xlink:href="" id="container" x="272" y="144" width="480" height="480" style="display: none;" transform="translate(0 0)"></image>
        <g id="logo-center" transform="translate(0 0)">
            <image xlink:href="" id="icon_container" style="display: none;" x="0" y="0"></image>
            <g id="slogan" style="font-style:normal;font-weight:400;font-size:32px;line-height:1;font-family:Karla;font-variant-ligatures:none;text-align:center;text-anchor:middle" transform="translate(0 0)"></g>
            <g id="title" style="font-style:normal;font-weight:normal;font-size:72px;line-height:1;font-family:'Brandmark Sans 2';font-variant-ligatures:normal;text-align:center;text-anchor:middle" transform="translate(0 0)">
                <path id="path591805" style="font-style:normal;font-weight:normal;font-size:72px;line-height:1;font-family:'Brandmark Sans 2';font-variant-ligatures:normal;text-align:center;text-anchor:middle" d="m 453.5045,-15.624 c -2.952,3.888 -7.632,6.336 -12.528,6.336 -8.28,0 -16.056,-7.128 -16.056,-15.912 0,-3.168 1.008,-6.12 2.664,-8.568 h -24.12 l -8.496,8.928 h 18.648 c 0.216,14.544 11.88,25.488 27.288,25.488 9.936,0 18.288,-4.536 23.04,-11.592 z m 5.976,-35.136 h -19.8 c -8.64,0.288 -15.984,4.032 -20.664,9.864 h 30.96 z" stroke-width="0" stroke-linejoin="miter" stroke-miterlimit="2" fill="#436cc1" stroke="#436cc1" transform="translate(0 345.89799999999997) translate(218.07968750000003 -26.06799999999999) scale(2.5) translate(-394.9685 50.76)"></path>
                <path id="path591807" style="font-style:normal;font-weight:normal;font-size:72px;line-height:1;font-family:'Brandmark Sans 2';font-variant-ligatures:normal;text-align:center;text-anchor:middle" d="m 495.96762,-50.832 c -15.552,0 -27.288,11.016 -27.288,25.56 0,14.76 11.736,25.848 27.288,25.848 15.55201,0 27.288,-11.088 27.288,-25.848 0,-14.544 -11.73599,-25.56 -27.288,-25.56 z m 0.144,41.544 c -8.28,0 -16.05599,-7.128 -16.05599,-15.912 0,-8.856 7.704,-15.768 16.12799,-15.768 8.28,0 15.84001,6.912 15.84001,15.768 0,8.928 -7.56001,15.912 -15.84001,15.912 z" stroke-width="0" stroke-linejoin="miter" stroke-miterlimit="2" fill="#4778c7" stroke="#4778c7" transform="translate(0 345.89799999999997) translate(402.35748750000005 -26.247999999999998) scale(2.5) translate(-468.67962 50.832)"></path>
                <path id="path591809" style="font-style:normal;font-weight:normal;font-size:72px;line-height:1;font-family:'Brandmark Sans 2';font-variant-ligatures:normal;text-align:center;text-anchor:middle" d="m 551.4065,-50.4 h -20.304 V 0 h 19.8 c 15.12,0 25.704,-10.368 25.704,-25.2 0,-15.048 -10.152,-25.2 -25.272,-25.2 z m 0.216,40.968 h -9.288 V -41.04 h 8.784 c 8.28,0 14.04,6.552 14.04,15.912 0,9.288 -5.544,15.768 -13.464,15.768 z" stroke-width="0" stroke-linejoin="miter" stroke-miterlimit="2" fill="#4b84cd" stroke="#4b84cd" transform="translate(0 345.89799999999997) translate(558.4146874999999 -25.168) scale(2.5) translate(-531.1025 50.4)"></path>
                <path id="path591811" style="font-style:normal;font-weight:normal;font-size:72px;line-height:1;font-family:'Brandmark Sans 2';font-variant-ligatures:normal;text-align:center;text-anchor:middle" d="m 610.08875,-50.4 h -11.952 L 577.68875,0 h 11.52 l 3.528,-9.504 h 21.888 l 3.456,9.504 h 12.024 z m -14.184,32.04 7.848,-21.096 7.632,21.096 z" stroke-width="0" stroke-linejoin="miter" stroke-miterlimit="2" fill="#4f90d3" stroke="#4f90d3" transform="translate(0 345.89799999999997) translate(674.8803125 -25.168) scale(2.5) translate(-577.68875 50.4)"></path>
            </g>
            <image xlink:href="" id="icon" style="display: none;" x="0" y="0"></image>
        </g>
    </g>
</svg>