<svg xmlns:dc="http://purl.org/dc/elements/1.1/" xmlns:cc="http://creativecommons.org/ns#" xmlns:rdf="http://www.w3.org/1999/02/22-rdf-syntax-ns#" xmlns:svg="http://www.w3.org/2000/svg" xmlns="http://www.w3.org/2000/svg" xmlns:xlink="http://www.w3.org/1999/xlink" id="svg688203" viewBox="0 0 1024 768" height="768px" width="1024px" version="1.1">
    <metadata id="metadata688209" fill="#000000">
        <rdf:rdf fill="#000000">
            <cc:work rdf:about="" fill="#000000">
                <dc:format fill="#000000">image/svg+xml</dc:format>
                <dc:type rdf:resource="http://purl.org/dc/dcmitype/StillImage" fill="#000000"/>
            </cc:work>
        </rdf:rdf>
    </metadata>
    <defs id="defs688207" fill="#000000"/>
    <linearGradient spreadMethod="pad" y2="30%" x2="-10%" y1="120%" x1="30%" id="3d_gradient2-logo-955660c6-5573-466f-b93e-c591a16cbca5" fill="#000000">
        <stop id="stop688184" stop-opacity="1" stop-color="#ffffff" offset="0%" fill="#000000"/>
        <stop id="stop688186" stop-opacity="1" stop-color="#000000" offset="100%" fill="#000000"/>
    </linearGradient>
    <linearGradient gradientTransform="rotate(-30)" spreadMethod="pad" y2="30%" x2="-10%" y1="120%" x1="30%" id="3d_gradient3-logo-955660c6-5573-466f-b93e-c591a16cbca5" fill="#000000">
        <stop id="stop688189" stop-opacity="1" stop-color="#ffffff" offset="0%" fill="#000000"/>
        <stop id="stop688191" stop-opacity="1" stop-color="#cccccc" offset="50%" fill="#000000"/>
        <stop id="stop688193" stop-opacity="1" stop-color="#000000" offset="100%" fill="#000000"/>
    </linearGradient>
    <g id="logo-group">
        <image xlink:href="" id="container" x="272" y="144" width="480" height="480" style="display: none;" transform="translate(0 0)" fill="#000000"/>
        <g id="logo-center" transform="translate(0 0)">
            <image xlink:href="" id="icon_container" style="display: none;" x="0" y="0" fill="#000000"/>
            <g id="slogan" style="font-style:normal;font-weight:700;font-size:32px;line-height:1;font-family:'Maven Pro';font-variant-ligatures:none;text-align:center;text-anchor:middle" transform="translate(0 0)"/>
            <g id="title" style="font-style:normal;font-weight:normal;font-size:72px;line-height:1;font-family:'Brandmark Sans 24 Spectrum';font-variant-ligatures:normal;text-align:center;text-anchor:middle" transform="translate(0 0)">
                <g id="path688212" aria-label="C" transform="translate(0 345.84400000000005) translate(299.02016249999997 -24.304000000000002) scale(2.5) translate(-429.28269 50.256)"> <path class="c1" d="M102.40012,125.51417c-14.06829,0-25.5144-11.44564-25.5144-25.51393s11.44611-25.51393,25.5144-25.51393 c8.18378,0,15.92721,3.96878,20.71417,10.61609l-9.44325,6.80024c-2.60608-3.61935-6.81918-5.77987-11.27092-5.77987 c-7.65253,0-13.87795,6.22543-13.87795,13.87747s6.22543,13.87748,13.87795,13.87748c4.18469,0,8.10517-1.86176,10.75576-5.10799 l9.01333,7.3599C117.2989,122.09369,110.09335,125.51417,102.40012,125.51417z" transform="translate(352.39697 -124.74231)" stroke-width="0" stroke-linejoin="miter" stroke-miterlimit="2" fill="#2a2aff" stroke="#2a2aff"/> </g>
                <g id="path688214" aria-label="o" transform="translate(0 345.84400000000005) translate(424.96608750000007 14.215999999999994) scale(2.5) translate(-477.66106 34.848)"> <path class="c1" d="M99.99953,117.92154c-9.82015,0-17.8098-7.98965-17.8098-17.81027s7.98965-17.81027,17.8098-17.81027 c9.8211,0,17.81075,7.98965,17.81075,17.81027S109.82063,117.92154,99.99953,117.92154z M99.99953,92.96775 c-3.93848,0-7.14305,3.20457-7.14305,7.14352c0,3.93896,3.20457,7.14352,7.14305,7.14352c3.93942,0,7.144-3.20457,7.144-7.14352 C107.14352,96.17232,103.93895,92.96775,99.99953,92.96775z" transform="translate(395.47133 -117.149)" stroke-width="0" stroke-linejoin="miter" stroke-miterlimit="2" fill="#2a2aff" stroke="#2a2aff"/> </g>
                <g id="path688216" aria-label="d" transform="translate(0 345.84400000000005) translate(528.4035875000001 -27.004000000000005) scale(2.5) translate(-517.03606 51.336)"> <path class="c1" d="M100.00024,117.92154c-9.8211,0-17.81075-7.98965-17.81075-17.81027s7.98965-17.81027,17.81075-17.81027 c9.82063,0,17.81027,7.98965,17.81027,17.81027S109.82086,117.92154,100.00024,117.92154z M100.00024,92.96775 c-3.93942,0-7.144,3.20457-7.144,7.14352c0,3.93896,3.20457,7.14352,7.144,7.14352c3.93895,0,7.14352-3.20457,7.14352-7.14352 C107.14376,96.17232,103.93919,92.96775,100.00024,92.96775z" transform="translate(434.84657 -117.112253)" stroke-width="0" stroke-linejoin="miter" stroke-miterlimit="2" fill="#2a2aff" stroke="#2a2aff"/> <rect x="107.14376" y="65.77625" class="c3" width="10.66675" height="51.38676" transform="translate(434.84657 -117.112253)" stroke-width="0" stroke-linejoin="miter" stroke-miterlimit="2" fill="#4bff2a" stroke="#4bff2a"/> <path class="c2" d="M107.14376,83.80775v32.60703c6.27171-2.75907,10.66675-9.02386,10.66675-16.30351 C117.81051,92.83162,113.41547,86.56683,107.14376,83.80775z" transform="translate(434.84657 -117.112253)" stroke-width="0" stroke-linejoin="miter" stroke-miterlimit="2" fill="#33bf17" stroke="#33bf17"/> </g>
                <g id="path688218" aria-label="a" transform="translate(0 345.84400000000005) translate(636.0598375000001 14.215999999999994) scale(2.5) translate(-558.09856 34.848)"> <path class="c1" d="M99.99976,117.92154c-9.82063,0-17.81027-7.98965-17.81027-17.81027s7.98965-17.81027,17.81027-17.81027 c9.8211,0,17.81075,7.98965,17.81075,17.81027S109.82086,117.92154,99.99976,117.92154z M99.99976,92.96775 c-3.93895,0-7.14352,3.20457-7.14352,7.14352c0,3.93896,3.20457,7.14352,7.14352,7.14352c3.93942,0,7.144-3.20457,7.144-7.14352 C107.14376,96.17232,103.93919,92.96775,99.99976,92.96775z" transform="translate(475.90907 -117.149)" stroke-width="0" stroke-linejoin="miter" stroke-miterlimit="2" fill="#2a2aff" stroke="#2a2aff"/> <rect x="107.14376" y="100.11127" class="c3" width="10.66675" height="17.05174" transform="translate(475.90907 -117.149)" stroke-width="0" stroke-linejoin="miter" stroke-miterlimit="2" fill="#4bff2a" stroke="#4bff2a"/> <path class="c2" d="M117.81051,100.11127h-10.66675v16.3034C113.41559,113.65553,117.81051,107.39086,117.81051,100.11127z" transform="translate(475.90907 -117.149)" stroke-width="0" stroke-linejoin="miter" stroke-miterlimit="2" fill="#33bf17" stroke="#33bf17"/> </g>
            </g>
            <image xlink:href="" id="icon" style="display: none;" x="0" y="0" fill="#000000"/>
        </g>
    </g>
</svg>