<svg xmlns="http://www.w3.org/2000/svg" xmlns:xlink="http://www.w3.org/1999/xlink" version="1.1" width="985.2966918945312" height="210.42857360839844" xml:space="preserve" style=""><rect id="backgroundrect" width="100%" height="100%" x="0" y="0" fill="none" stroke="none" style="" class=""/>
<desc>Created with Fabric.js 5.2.4</desc>
<defs>
<filter xmlns:inkscape="http://www.inkscape.org/namespaces/inkscape" id="f116" inkscape:label="Garden of Delights" inkscape:menu="Overlays" inkscape:menu-tooltip="Phantasmagorical turbulent wisps, like Hieronymus Bosch's Garden of Delights" x="-0.15000000596046448" width="1.2999999523162842" y="-0.15000000596046448" height="1.2999999523162842" color-interpolation-filters="sRGB">
            <feTurbulence result="result1" baseFrequency="0.005 0.01" numOctaves="8" type="fractalNoise" seed="20"/>
            <feColorMatrix result="result3" values="0 0 0 0 1 0 0 0 0 1 0 0 0 0 1 0 0 0 1.2 -0.4 "/>
            <feConvolveMatrix order="3 3" kernelMatrix="3 0 0 0 2 0 0 0 -1 " targetX="1" targetY="1" divisor="2" result="result8"/>
            <feComposite result="fbSourceGraphic" in2="SourceGraphic" operator="atop" in="result8"/>
            <feTurbulence baseFrequency="0.027 0.025" numOctaves="7" type="turbulence" seed="20"/>
            <feColorMatrix values="1 0 0 0 0 0 1 0 0 0 0 0 1 0 0 0 0 0 4.7 -2 " result="result5"/>
            <feComposite in2="result5" operator="in" in="fbSourceGraphic" result="result6"/>
            <feDisplacementMap in2="result5" result="result4" scale="48" yChannelSelector="A" xChannelSelector="R" in="result6"/>
            <feFlood flood-color="#ded9d9" flood-opacity="1"/>
            <feComposite in2="result4" operator="in" result="result2"/>
            <feComposite in2="fbSourceGraphic" operator="atop" in="result2" result="result91"/>
            <feBlend mode="darken" in2="result91"/>
        </filter></defs>





<g class="currentLayer" style=""><title>Layer 1</title>

<g id="b068ad74-6484-4228-8a01-ad35085db780" class="">
</g>

		<g id="container" stroke-width="0" stroke="#000000" stroke-opacity="1" class="" fill="#0b0bd5" fill-opacity="1">
</g>
		<g id="icon_container" stroke-width="0" stroke="#000000" stroke-opacity="1" class="" fill="#0b0bd5" fill-opacity="1">
</g>
		
<path style="stroke-width: 0; stroke-dasharray: none; stroke-linecap: butt; stroke-dashoffset: 0; stroke-linejoin: miter; stroke-miterlimit: 2; fill-rule: nonzero; opacity: 1;" vector-effect="non-scaling-stroke" d="M134.96576149477832,189.523773419681 C149.94355540079368,197.74262262741865 166.9872519145351,201.7194851472916 186.09685103600293,201.7194851472916 C202.62407189781283,201.7194851472916 217.34362797786218,198.80311929938466 230.7719949280829,192.7052634355794 C243.94212405233773,186.87253173976563 255.04635056886622,178.12343419604497 263.8264366517028,166.723094972409 L231.2884705800145,136.49893982137405 C219.40953058558853,151.0807690609085 205.20645015747067,158.23912159667992 188.67922929566075,158.23912159667992 C178.86619190896107,158.23912159667992 170.08610582612448,156.11812825274768 162.33897104715118,151.6110173968915 C154.59183626817762,147.36903070902702 148.65236627096485,141.00605067723018 144.52056105551222,133.05232563748416 C140.38875584005976,125.09860059773808 138.32285323233344,115.81925471803436 138.32285323233344,105.21428799837304 C138.32285323233344,94.87444544670308 140.38875584005976,85.59509956699938 144.52056105551222,77.64137452725336 C148.65236627096465,69.68764948750729 154.59183626817762,63.324669455710534 162.33897104715118,58.81755859985438 C170.0861058261247,54.57557191198984 178.86619190896107,52.18945440006601 188.67922929566075,52.18945440006601 C205.20645015747067,52.18945440006601 219.40953058558853,59.61293110382903 231.2884705800145,73.92963617537188 L263.8264366517028,43.70548102433699 C255.04635056886644,32.570265968692496 243.94212405233773,23.82116842497189 230.7719949280829,17.72331256116655 C217.34362797786218,11.890580865352831 202.62407189781283,8.709090849454384 186.09685103600293,8.709090849454384 C166.9872519145351,8.709090849454384 149.94355540079368,12.951077537318923 134.96576149477832,21.169926745056472 C119.98796758876321,29.38877595279405 108.1090275943372,40.78911517643013 99.58717933746661,55.37094441596446 C90.80709325463,70.2178978234904 86.67528803917735,86.65559623896559 86.67528803917735,105.21428799837304 C86.67528803917735,123.77297975778043 90.80709325463,140.47580234124712 99.58717933746661,155.0576315807815 C108.1090275943372,169.90458498830748 119.98796758876321,181.30492421194344 134.96576149477832,189.52377341968105 z" stroke-linecap="round" stroke-width="0" id="svg_5" stroke="#000000" stroke-opacity="1" fill="#0b0bd5" fill-opacity="1" class="selected"/>

		
<path style="stroke-width: 0; stroke-dasharray: none; stroke-linecap: butt; stroke-dashoffset: 0; stroke-linejoin: miter; stroke-miterlimit: 2; fill-rule: nonzero; opacity: 1;" vector-effect="non-scaling-stroke" d="M322.11377574783586,189.25864943050334 C337.3498074798167,197.7426228062326 354.65174181952415,201.71948532610554 373.7613409409917,201.71948532610554 C392.87094006245945,201.71948532610554 409.91463657620096,197.7426228062326 425.150668308182,189.25864943050334 C440.38670004016296,181.03980022276585 452.2656400345889,169.63946099912982 461.0457261174255,154.7925075916039 C469.8258122002619,140.21067835206952 474.2158552416803,123.77297993659437 474.2158552416803,105.21428817718697 C474.2158552416803,86.92072058577102 469.82581220026213,70.48302217029581 461.0457261174255,55.63606876276992 C452.2656400345889,41.05423952323554 440.38670004016296,29.65390029959954 425.150668308182,21.169926923870406 C409.91463657620096,12.951077716132858 392.87094006245945,8.709091028268261 373.7613409409917,8.709091028268261 C354.65174181952415,8.709091028268261 337.3498074798167,12.951077716132858 322.11377574783586,21.169926923870406 C306.87774401585466,29.65390029959954 294.9988040214287,41.05423952323554 286.2187179385924,55.63606876276992 C277.4386318557557,70.48302217029581 273.30682664030314,86.92072058577102 273.30682664030314,105.21428817718697 C273.30682664030314,123.77297993659437 277.4386318557557,140.21067835206952 286.2187179385924,154.7925075916039 C294.9988040214287,169.63946099912982 306.87774401585466,181.0398002227658 322.11377574783586,189.25864943050334 zM398.5521722337069,151.61101757570543 C391.06327528069914,156.11812843156162 382.7996648497943,158.23912177549386 373.76134094099194,158.23912177549386 C364.464779206224,158.23912177549386 356.20116877531876,156.11812843156162 348.97050964827713,151.61101757570543 C341.4816126952694,147.36903088784095 335.5421426980564,141.0060508560441 331.41033748260395,133.0523258162981 C327.0202944411858,125.09860077655202 324.9543918334594,115.81925489684829 324.9543918334594,105.21428817718697 C324.9543918334594,94.87444562551701 327.0202944411858,85.59509974581331 331.41033748260395,77.6413747060673 C335.5421426980564,69.68764966632122 341.4816126952694,63.32466963452447 348.97050964827713,58.817558778668314 C356.201168775319,54.575572090803774 364.464779206224,52.189454578879946 373.76134094099194,52.189454578879946 C382.7996648497943,52.189454578879946 391.0632752806994,54.575572090803774 398.5521722337069,58.817558778668314 C405.78283136074873,63.32466963452441 411.7223013579617,69.68764966632122 416.11234439937994,77.6413747060673 C420.24414961483234,85.59509974581331 422.56829004852443,94.87444562551701 422.56829004852443,105.21428817718697 C422.56829004852443,115.81925489684829 420.24414961483234,125.09860077655202 416.11234439937994,133.0523258162981 C411.7223013579617,141.0060508560441 405.78283136074873,147.36903088784095 398.5521722337069,151.61101757570543 z" stroke-linecap="round" stroke-width="0" id="svg_6" stroke="#000000" stroke-opacity="1" fill="#0b0bd5" fill-opacity="1" class="selected"/>

		<g id="path7008" stroke-width="0" stroke="#000000" stroke-opacity="1" class="selected" fill="#0b0bd5" fill-opacity="1">
<path style="stroke-width: 0; stroke-dasharray: none; stroke-linecap: butt; stroke-dashoffset: 0; stroke-linejoin: miter; stroke-miterlimit: 2; fill-rule: nonzero; opacity: 1;" vector-effect="non-scaling-stroke" d="M674.7827124890701,56.166310244218835 C666.2608642321994,42.37985350865904 654.3819242377735,31.509762621006132 639.1458925057922,23.821161749251615 C623.6516229478451,16.397685045488686 606.0914507821724,12.420822525615591 586.4653760087731,12.420822525615591 L500.98865561409986,12.420822525615591 L500.98865561409986,54.310441068278095 L584.3994734010467,54.310441068278095 C599.8937429589938,54.310441068278095 612.2891586053511,58.81755192413411 621.5857203401195,67.83177363584628 C630.8822820748874,77.11111951555003 635.7888007682373,89.57195541115215 635.7888007682373,105.21428132265271 C635.7888007682373,121.1217314021448 630.8822820748874,133.58256729774695 621.5857203401195,142.5967890094591 C612.2891586053511,151.61101072117128 599.8937429589938,156.1181215770274 584.3994734010467,156.1181215770274 L552.1197451553242,156.1181215770274 L552.1197451553242,106.80502633060195 L500.98865561409986,106.80502633060195 L500.98865561409986,198.00774011968986 L586.4653760087731,198.00774011968986 C606.0914507821724,198.00774011968986 623.6516229478456,194.29600176780838 639.1458925057922,186.6074008960539 C654.3819242377735,179.18392419229093 666.2608642321991,168.31383330463797 674.7827124890701,154.26225240108664 C683.046322919975,140.47579566552685 687.4363659613933,124.03809725005169 687.4363659613933,105.21428132265282 C687.4363659613933,86.65558956324537 683.046322919975,70.21789114777019 674.7827124890701,56.166310244218835 z" stroke-linecap="round" stroke-width="0" id="svg_7" stroke="#000000" stroke-opacity="1" fill="#0b0bd5" fill-opacity="1"/>
</g>
		
<path style="stroke-width: 0; stroke-dasharray: none; stroke-linecap: butt; stroke-dashoffset: 0; stroke-linejoin: miter; stroke-miterlimit: 2; fill-rule: nonzero; opacity: 1;" vector-effect="non-scaling-stroke" d="M820.5740087251266,12.420822525615648 L770.2176326617995,12.420822525615648 L690.4221444383734,198.00774011968986 L742.5861852834606,198.00774011968986 L756.7892657115788,161.9508532728412 L771.7670596175944,123.24272474607704 L795.0084639545145,63.85491111597341 L818.2498682914347,123.24272474607704 L833.2276621974504,161.9508532728412 L847.4307426255683,198.00774011968986 L900.6277347745194,198.00774011968986 z" stroke-linecap="round" stroke-width="0" id="svg_8" stroke="#000000" stroke-opacity="1" fill="#0b0bd5" fill-opacity="1" class="selected"/>

		<g id="icon" stroke-width="0" stroke="#000000" stroke-opacity="1" class="" fill="#0b0bd5" fill-opacity="1">
</g>

<g id="svg_9" class="">
<g style="" stroke-width="NaN" id="svg_10">
</g>
</g><path fill="" fill-opacity="1" stroke="none" stroke-opacity="1" stroke-width="1" stroke-dasharray="none" stroke-linejoin="miter" stroke-linecap="butt" stroke-dashoffset="" fill-rule="nonzero" opacity="1" marker-start="" marker-mid="" marker-end="" d="M63,141 C63,141 63,141 63,141 C63,141 63,141 63,141 C63,141 63,141 63,141 C63,141 63,141 63,141 z" id="svg_11" class=""/></g></svg>