<svg xmlns="http://www.w3.org/2000/svg" xmlns:xlink="http://www.w3.org/1999/xlink" version="1.1" width="819" height="202" xml:space="preserve" style=""><rect id="backgroundrect" width="100%" height="100%" x="0" y="0" fill="none" stroke="none" style="" class=""/>
<desc>Created with Fabric.js 5.2.4</desc>
<defs>
<filter xmlns:inkscape="http://www.inkscape.org/namespaces/inkscape" id="f116" inkscape:label="Garden of Delights" inkscape:menu="Overlays" inkscape:menu-tooltip="Phantasmagorical turbulent wisps, like Hieronymus Bosch's Garden of Delights" x="-0.15000000596046448" width="1.2999999523162842" y="-0.15000000596046448" height="1.2999999523162842" color-interpolation-filters="sRGB">
            <feTurbulence result="result1" baseFrequency="0.005 0.01" numOctaves="8" type="fractalNoise" seed="20"/>
            <feColorMatrix result="result3" values="0 0 0 0 1 0 0 0 0 1 0 0 0 0 1 0 0 0 1.2 -0.4 "/>
            <feConvolveMatrix order="3 3" kernelMatrix="3 0 0 0 2 0 0 0 -1 " targetX="1" targetY="1" divisor="2" result="result8"/>
            <feComposite result="fbSourceGraphic" in2="SourceGraphic" operator="atop" in="result8"/>
            <feTurbulence baseFrequency="0.027 0.025" numOctaves="7" type="turbulence" seed="20"/>
            <feColorMatrix values="1 0 0 0 0 0 1 0 0 0 0 0 1 0 0 0 0 0 4.7 -2 " result="result5"/>
            <feComposite in2="result5" operator="in" in="fbSourceGraphic" result="result6"/>
            <feDisplacementMap in2="result5" result="result4" scale="48" yChannelSelector="A" xChannelSelector="R" in="result6"/>
            <feFlood flood-color="#ded9d9" flood-opacity="1"/>
            <feComposite in2="result4" operator="in" result="result2"/>
            <feComposite in2="fbSourceGraphic" operator="atop" in="result2" result="result91"/>
            <feBlend mode="darken" in2="result91"/>
        </filter></defs>





<g class="currentLayer" style=""><title>Layer 1</title>

<g id="b068ad74-6484-4228-8a01-ad35085db780" class="">
</g>

		<g id="container" stroke-width="0" stroke="#000000" stroke-opacity="1" class="" fill="#0b0bd5" fill-opacity="1">
</g>
		<g id="icon_container" stroke-width="0" stroke="#000000" stroke-opacity="1" class="" fill="#0b0bd5" fill-opacity="1">
</g>
		
<path style="stroke-width: 0; stroke-dasharray: none; stroke-linecap: butt; stroke-dashoffset: 0; stroke-linejoin: miter; stroke-miterlimit: 2; fill-rule: nonzero; opacity: 1;" vector-effect="non-scaling-stroke" d="M53.18902809634082,189.523773419681 C68.16682200235618,197.74262262741865 85.21051851609761,201.7194851472916 104.32011763756543,201.7194851472916 C120.84733849937533,201.7194851472916 135.56689457942468,198.80311929938466 148.9952615296454,192.7052634355794 C162.16539065390023,186.87253173976563 173.26961717042872,178.12343419604497 182.0497032532653,166.723094972409 L149.511737181577,136.49893982137405 C137.63279718715103,151.0807690609085 123.42971675903317,158.23912159667992 106.90249589722325,158.23912159667992 C97.08945851052357,158.23912159667992 88.30937242768698,156.11812825274768 80.56223764871368,151.6110173968915 C72.81510286974012,147.36903070902702 66.87563287252735,141.00605067723018 62.74382765707472,133.05232563748416 C58.61202244162226,125.09860059773808 56.54611983389594,115.81925471803436 56.54611983389594,105.21428799837304 C56.54611983389594,94.87444544670308 58.61202244162226,85.59509956699938 62.74382765707472,77.64137452725336 C66.87563287252715,69.68764948750729 72.81510286974012,63.324669455710534 80.56223764871368,58.81755859985438 C88.30937242768721,54.57557191198984 97.08945851052357,52.18945440006601 106.90249589722325,52.18945440006601 C123.42971675903317,52.18945440006601 137.63279718715103,59.61293110382903 149.511737181577,73.92963617537188 L182.0497032532653,43.70548102433699 C173.26961717042894,32.570265968692496 162.16539065390023,23.82116842497189 148.9952615296454,17.72331256116655 C135.56689457942468,11.890580865352831 120.84733849937533,8.709090849454384 104.32011763756543,8.709090849454384 C85.21051851609761,8.709090849454384 68.16682200235618,12.951077537318923 53.18902809634082,21.169926745056472 C38.21123419032571,29.38877595279405 26.332294195899706,40.78911517643013 17.81044593902911,55.37094441596446 C9.030359856192504,70.2178978234904 4.898554640739846,86.65559623896559 4.898554640739846,105.21428799837304 C4.898554640739846,123.77297975778043 9.030359856192504,140.47580234124712 17.81044593902911,155.0576315807815 C26.332294195899706,169.90458498830748 38.21123419032571,181.30492421194344 53.18902809634082,189.52377341968105 z" stroke-linecap="round" stroke-width="0" id="svg_5" stroke="#000000" stroke-opacity="1" fill="#0b0bd5" fill-opacity="1" class=""/>

		
<path style="stroke-width: 0; stroke-dasharray: none; stroke-linecap: butt; stroke-dashoffset: 0; stroke-linejoin: miter; stroke-miterlimit: 2; fill-rule: nonzero; opacity: 1;" vector-effect="non-scaling-stroke" d="M240.33704234939836,189.25864943050334 C255.57307408137922,197.7426228062326 272.87500842108665,201.71948532610554 291.9846075425542,201.71948532610554 C311.09420666402195,201.71948532610554 328.13790317776346,197.7426228062326 343.3739349097445,189.25864943050334 C358.60996664172546,181.03980022276585 370.4889066361514,169.63946099912982 379.268992718988,154.7925075916039 C388.0490788018244,140.21067835206952 392.4391218432428,123.77297993659437 392.4391218432428,105.21428817718697 C392.4391218432428,86.92072058577102 388.04907880182463,70.48302217029581 379.268992718988,55.63606876276992 C370.4889066361514,41.05423952323554 358.60996664172546,29.65390029959954 343.3739349097445,21.169926923870406 C328.13790317776346,12.951077716132858 311.09420666402195,8.709091028268261 291.9846075425542,8.709091028268261 C272.87500842108665,8.709091028268261 255.57307408137922,12.951077716132858 240.33704234939836,21.169926923870406 C225.10101061741716,29.65390029959954 213.22207062299123,41.05423952323554 204.44198454015492,55.63606876276992 C195.66189845731822,70.48302217029581 191.53009324186564,86.92072058577102 191.53009324186564,105.21428817718697 C191.53009324186564,123.77297993659437 195.66189845731822,140.21067835206952 204.44198454015492,154.7925075916039 C213.22207062299123,169.63946099912982 225.10101061741716,181.0398002227658 240.33704234939836,189.25864943050334 zM316.7754388352694,151.61101757570543 C309.28654188226164,156.11812843156162 301.0229314513568,158.23912177549386 291.98460754255444,158.23912177549386 C282.6880458077865,158.23912177549386 274.42443537688126,156.11812843156162 267.19377624983963,151.61101757570543 C259.7048792968319,147.36903088784095 253.7654092996189,141.0060508560441 249.63360408416645,133.0523258162981 C245.2435610427483,125.09860077655202 243.1776584350219,115.81925489684829 243.1776584350219,105.21428817718697 C243.1776584350219,94.87444562551701 245.2435610427483,85.59509974581331 249.63360408416645,77.6413747060673 C253.7654092996189,69.68764966632122 259.7048792968319,63.32466963452447 267.19377624983963,58.817558778668314 C274.4244353768815,54.575572090803774 282.6880458077865,52.189454578879946 291.98460754255444,52.189454578879946 C301.0229314513568,52.189454578879946 309.2865418822619,54.575572090803774 316.7754388352694,58.817558778668314 C324.00609796231123,63.32466963452441 329.9455679595242,69.68764966632122 334.33561100094244,77.6413747060673 C338.46741621639484,85.59509974581331 340.79155665008693,94.87444562551701 340.79155665008693,105.21428817718697 C340.79155665008693,115.81925489684829 338.46741621639484,125.09860077655202 334.33561100094244,133.0523258162981 C329.9455679595242,141.0060508560441 324.00609796231123,147.36903088784095 316.7754388352694,151.61101757570543 z" stroke-linecap="round" stroke-width="0" id="svg_6" stroke="#000000" stroke-opacity="1" fill="#0b0bd5" fill-opacity="1" class=""/>

		<g id="path7008" stroke-width="0" stroke="#000000" stroke-opacity="1" class="" fill="#0b0bd5" fill-opacity="1">
<path style="stroke-width: 0; stroke-dasharray: none; stroke-linecap: butt; stroke-dashoffset: 0; stroke-linejoin: miter; stroke-miterlimit: 2; fill-rule: nonzero; opacity: 1;" vector-effect="non-scaling-stroke" d="M593.0059790906326,56.166310244218835 C584.4841308337619,42.37985350865904 572.605190839336,31.509762621006132 557.3691591073547,23.821161749251615 C541.8748895494076,16.397685045488686 524.3147173837349,12.420822525615591 504.6886426103356,12.420822525615591 L419.21192221566236,12.420822525615591 L419.21192221566236,54.310441068278095 L502.62274000260925,54.310441068278095 C518.1170095605563,54.310441068278095 530.5124252069136,58.81755192413411 539.808986941682,67.83177363584628 C549.1055486764499,77.11111951555003 554.0120673697998,89.57195541115215 554.0120673697998,105.21428132265271 C554.0120673697998,121.1217314021448 549.1055486764499,133.58256729774695 539.808986941682,142.5967890094591 C530.5124252069136,151.61101072117128 518.1170095605563,156.1181215770274 502.62274000260925,156.1181215770274 L470.34301175688665,156.1181215770274 L470.34301175688665,106.80502633060195 L419.21192221566236,106.80502633060195 L419.21192221566236,198.00774011968986 L504.6886426103356,198.00774011968986 C524.3147173837349,198.00774011968986 541.8748895494081,194.29600176780838 557.3691591073547,186.6074008960539 C572.605190839336,179.18392419229093 584.4841308337616,168.31383330463797 593.0059790906326,154.26225240108664 C601.2695895215375,140.47579566552685 605.6596325629558,124.03809725005169 605.6596325629558,105.21428132265282 C605.6596325629558,86.65558956324537 601.2695895215375,70.21789114777019 593.0059790906326,56.166310244218835 z" stroke-linecap="round" stroke-width="0" id="svg_7" stroke="#000000" stroke-opacity="1" fill="#0b0bd5" fill-opacity="1"/>
</g>
		
<path style="stroke-width: 0; stroke-dasharray: none; stroke-linecap: butt; stroke-dashoffset: 0; stroke-linejoin: miter; stroke-miterlimit: 2; fill-rule: nonzero; opacity: 1;" vector-effect="non-scaling-stroke" d="M738.7972753266891,12.420822525615648 L688.440899263362,12.420822525615648 L608.6454110399359,198.00774011968986 L660.8094518850231,198.00774011968986 L675.0125323131413,161.9508532728412 L689.9903262191569,123.24272474607704 L713.231730556077,63.85491111597341 L736.4731348929972,123.24272474607704 L751.4509287990129,161.9508532728412 L765.6540092271308,198.00774011968986 L818.8510013760819,198.00774011968986 z" stroke-linecap="round" stroke-width="0" id="svg_8" stroke="#000000" stroke-opacity="1" fill="#0b0bd5" fill-opacity="1" class=""/>

		<g id="icon" stroke-width="0" stroke="#000000" stroke-opacity="1" class="" fill="#0b0bd5" fill-opacity="1">
</g>

<g id="svg_9" class="">
<g style="" stroke-width="NaN" id="svg_10">
</g>
</g><path fill="" fill-opacity="1" stroke="none" stroke-opacity="1" stroke-width="1" stroke-dasharray="none" stroke-linejoin="miter" stroke-linecap="butt" stroke-dashoffset="" fill-rule="nonzero" opacity="1" marker-start="" marker-mid="" marker-end="" d="M63,141 C63,141 63,141 63,141 C63,141 63,141 63,141 C63,141 63,141 63,141 C63,141 63,141 63,141 z" id="svg_11" class=""/></g></svg>