<svg xmlns="http://www.w3.org/2000/svg" xmlns:xlink="http://www.w3.org/1999/xlink" version="1.1" width="950" height="500" xml:space="preserve" style=""><rect id="backgroundrect" width="100%" height="100%" x="0" y="0" fill="none" stroke="none"/>
<desc>Created with Fabric.js 5.2.4</desc>
<defs>
<filter id="f116" xmlns:inkscape="http://www.inkscape.org/namespaces/inkscape" inkscape:label="Garden of Delights" inkscape:menu="Overlays" inkscape:menu-tooltip="Phantasmagorical turbulent wisps, like Hieronymus Bosch's Garden of Delights" x="-.15" width="1.3" y="-.15" height="1.3" color-interpolation-filters="sRGB">
            <feTurbulence result="result1" baseFrequency="0.005 0.01" numOctaves="8" type="fractalNoise" seed="20"/>
            <feColorMatrix result="result3" values="0 0 0 0 1 0 0 0 0 1 0 0 0 0 1 0 0 0 1.2 -0.4 "/>
            <feConvolveMatrix order="3 3" kernelMatrix="3 0 0 0 2 0 0 0 -1 " targetX="1" targetY="1" divisor="2" result="result8"/>
            <feComposite result="fbSourceGraphic" in2="SourceGraphic" operator="atop" in="result8"/>
            <feTurbulence baseFrequency="0.027 0.025" numOctaves="7" type="turbulence" seed="20"/>
            <feColorMatrix values="1 0 0 0 0 0 1 0 0 0 0 0 1 0 0 0 0 0 4.7 -2 " result="result5"/>
            <feComposite in2="result5" operator="in" in="fbSourceGraphic" result="result6"/>
            <feDisplacementMap in2="result5" result="result4" scale="48" yChannelSelector="A" xChannelSelector="R" in="result6"/>
            <feFlood flood-color="#ded9d9" flood-opacity="1"/>
            <feComposite in2="result4" operator="in" result="result2"/>
            <feComposite in2="fbSourceGraphic" operator="atop" in="result2" result="result91"/>
            <feBlend mode="darken" in2="result91"/>
        </filter></defs>





<g class="currentLayer" style=""><title>Layer 1</title><rect x="0" y="107.14286804199219" width="521.97802734375" height="215.85557556152344" fill="transparent" id="svg_1" class=""/>
<rect style="stroke-width: 1; stroke-dasharray: none; stroke-linecap: butt; stroke-dashoffset: 0; stroke-linejoin: miter; stroke-miterlimit: 4; fill-rule: nonzero;" vector-effect="non-scaling-stroke" x="-475" y="-403.2469470627434" rx="0" ry="0" width="949.9999999999999" height="500" transform="matrix(1.0647772740719057,0,0,0.5747252752058227,478.8461860987941,336.9759764354026) " stroke-width="0" id="svg_2" filter="" opacity="1" stroke="#ffffff" stroke-opacity="1" fill="#ffffff" fill-opacity="1" class=""/>
<g id="b068ad74-6484-4228-8a01-ad35085db780">
</g>

		<g id="container" stroke-width="0" stroke="#000000" stroke-opacity="1" class="" fill="#0b0bd5" fill-opacity="1">
</g>
		<g id="icon_container" stroke-width="0" stroke="#000000" stroke-opacity="1" class="" fill="#0b0bd5" fill-opacity="1">
</g>
		<g id="path7004" stroke-width="0" stroke="#000000" stroke-opacity="1" class="" fill="#0b0bd5" fill-opacity="1">
<path style="stroke-width: 0; stroke-dasharray: none; stroke-linecap: butt; stroke-dashoffset: 0; stroke-linejoin: miter; stroke-miterlimit: 2; fill-rule: nonzero; opacity: 1;" vector-effect="non-scaling-stroke" d="M116.58896667971484,335.4083893178133 C131.5667605857302,343.627238525551 148.61045709947163,347.60410104542393 167.72005622093945,347.60410104542393 C184.24727708274935,347.60410104542393 198.9668331627987,344.687735197517 212.39520011301943,338.58987933371174 C225.56532923727426,332.75714763789796 236.66955575380274,324.0080500941773 245.44964183663933,312.6077108705413 L212.911675764951,282.3835557195064 C201.03273577052505,296.9653849590408 186.8296553424072,304.12373749481225 170.30243448059727,304.12373749481225 C160.4893970938976,304.12373749481225 151.709311011061,302.00274415088 143.9621762320877,297.4956332950238 C136.21504145311414,293.25364660715934 130.27557145590137,286.8906665753625 126.14376624044874,278.9369415356165 C122.01196102499628,270.9832164958704 119.94605841726997,261.7038706161667 119.94605841726997,251.09890389650536 C119.94605841726997,240.7590613448354 122.01196102499628,231.4797154651317 126.14376624044874,223.5259904253857 C130.27557145590117,215.5722653856396 136.21504145311414,209.20928535384286 143.9621762320877,204.7021744979867 C151.70931101106123,200.46018781012216 160.4893970938976,198.07407029819834 170.30243448059727,198.07407029819834 C186.8296553424072,198.07407029819834 201.03273577052505,205.49754700196135 212.911675764951,219.8142520735042 L245.44964183663933,189.5900969224693 C236.66955575380297,178.45488186682482 225.56532923727426,169.7057843231042 212.39520011301943,163.60792845929888 C198.9668331627987,157.77519676348516 184.24727708274935,154.5937067475867 167.72005622093945,154.5937067475867 C148.61045709947163,154.5937067475867 131.5667605857302,158.83569343545125 116.58896667971484,167.0545426431888 C101.61117277369974,175.27339185092637 89.73223277927373,186.67373107456245 81.21038452240313,201.25556031409678 C72.43029843956653,216.10251372162273 68.29849322411387,232.5402121370979 68.29849322411387,251.09890389650536 C68.29849322411387,269.65759565591276 72.43029843956653,286.36041823937944 81.21038452240313,300.9422474789138 C89.73223277927373,315.7892008864398 101.61117277369974,327.18954011007577 116.58896667971484,335.4083893178134 z" stroke-linecap="round" stroke-width="0" id="svg_5" stroke="#000000" stroke-opacity="1" fill="#0b0bd5" fill-opacity="1"/>
</g>
		<g id="path7006" stroke-width="0" stroke="#000000" stroke-opacity="1" class="" fill="#0b0bd5" fill-opacity="1">
<path style="stroke-width: 0; stroke-dasharray: none; stroke-linecap: butt; stroke-dashoffset: 0; stroke-linejoin: miter; stroke-miterlimit: 2; fill-rule: nonzero; opacity: 1;" vector-effect="non-scaling-stroke" d="M303.7369809327724,335.14326514982173 C318.97301266475324,343.627238525551 336.27494700446067,347.60410104542393 355.38454612592824,347.60410104542393 C374.494145247396,347.60410104542393 391.5378417611375,343.627238525551 406.7738734931185,335.14326514982173 C422.0099052250995,326.92441594208424 433.8888452195254,315.5240767184482 442.668931302362,300.6771233109223 C451.44901738519843,286.0952940713879 455.8390604266168,269.65759565591276 455.8390604266168,251.09890389650536 C455.8390604266168,232.8053363050894 451.44901738519866,216.3676378896142 442.668931302362,201.5206844820883 C433.8888452195254,186.93885524255393 422.0099052250995,175.53851601891793 406.7738734931185,167.0545426431888 C391.5378417611375,158.83569343545125 374.494145247396,154.59370674758665 355.38454612592824,154.59370674758665 C336.27494700446067,154.59370674758665 318.97301266475324,158.83569343545125 303.7369809327724,167.0545426431888 C288.5009492007912,175.53851601891793 276.62200920636525,186.93885524255393 267.84192312352894,201.5206844820883 C259.06183704069224,216.3676378896142 254.93003182523967,232.8053363050894 254.93003182523967,251.09890389650536 C254.93003182523967,269.65759565591276 259.06183704069224,286.0952940713879 267.84192312352894,300.6771233109223 C276.62200920636525,315.5240767184482 288.5009492007912,326.9244159420842 303.7369809327724,335.14326514982173 zM380.17537741864345,297.4956332950238 C372.68648046563567,302.00274415088 364.4228700347308,304.12373749481225 355.38454612592847,304.12373749481225 C346.08798439116055,304.12373749481225 337.8243739602553,302.00274415088 330.59371483321365,297.4956332950238 C323.1048178802059,293.25364660715934 317.16534788299293,286.8906665753625 313.0335426675405,278.9369415356165 C308.6434996261223,270.9832164958704 306.5775970183959,261.7038706161667 306.5775970183959,251.09890389650536 C306.5775970183959,240.7590613448354 308.6434996261223,231.4797154651317 313.0335426675405,223.5259904253857 C317.16534788299293,215.5722653856396 323.1048178802059,209.20928535384286 330.59371483321365,204.7021744979867 C337.8243739602555,200.46018781012216 346.08798439116055,198.07407029819834 355.38454612592847,198.07407029819834 C364.4228700347308,198.07407029819834 372.6864804656359,200.46018781012216 380.17537741864345,204.7021744979867 C387.40603654568525,209.2092853538428 393.34550654289825,215.5722653856396 397.73554958431646,223.5259904253857 C401.86735479976886,231.4797154651317 404.19149523346096,240.7590613448354 404.19149523346096,251.09890389650536 C404.19149523346096,261.7038706161667 401.86735479976886,270.9832164958704 397.73554958431646,278.9369415356165 C393.34550654289825,286.8906665753625 387.40603654568525,293.25364660715934 380.17537741864345,297.4956332950238 z" stroke-linecap="round" stroke-width="0" id="svg_6" stroke="#000000" stroke-opacity="1" fill="#0b0bd5" fill-opacity="1"/>
</g>
		<g id="path7008" stroke-width="0" stroke="#000000" stroke-opacity="1" class="" fill="#0b0bd5" fill-opacity="1">
<path style="stroke-width: 0; stroke-dasharray: none; stroke-linecap: butt; stroke-dashoffset: 0; stroke-linejoin: miter; stroke-miterlimit: 2; fill-rule: nonzero; opacity: 1;" vector-effect="non-scaling-stroke" d="M656.4059176740067,202.05093281807137 C647.884069417136,188.26447608251158 636.0051294227101,177.39438519485867 620.7690976907287,169.70578432310415 C605.2748281327816,162.28230761934122 587.7146559671089,158.30544509946813 568.0885811937096,158.30544509946813 L482.6118607990364,158.30544509946813 L482.6118607990364,200.19506364213063 L566.0226785859833,200.19506364213063 C581.5169481439303,200.19506364213063 593.9123637902876,204.70217449798665 603.208925525056,213.71639620969881 C612.5054872598239,222.99574208940257 617.4120059531738,235.45657798500469 617.4120059531738,251.09890389650525 C617.4120059531738,267.00635397599734 612.5054872598239,279.4671898715995 603.208925525056,288.4814115833116 C593.9123637902876,297.4956332950238 581.5169481439303,302.00274415087995 566.0226785859833,302.00274415087995 L533.7429503402607,302.00274415087995 L533.7429503402607,252.6896489044545 L482.6118607990364,252.6896489044545 L482.6118607990364,343.8923626935424 L568.0885811937096,343.8923626935424 C587.7146559671089,343.8923626935424 605.2748281327821,340.1806243416609 620.7690976907287,332.4920234699064 C636.0051294227101,325.06854676614347 647.8840694171356,314.1984558784905 656.4059176740067,300.1468749749392 C664.6695281049115,286.3604182393794 669.0595711463299,269.92271982390423 669.0595711463299,251.09890389650536 C669.0595711463299,232.5402121370979 664.6695281049115,216.10251372162273 656.4059176740067,202.05093281807137 z" stroke-linecap="round" stroke-width="0" id="svg_7" stroke="#000000" stroke-opacity="1" fill="#0b0bd5" fill-opacity="1"/>
</g>
		<g id="path7010" stroke-width="0" stroke="#000000" stroke-opacity="1" class="" fill="#0b0bd5" fill-opacity="1">
<path style="stroke-width: 0; stroke-dasharray: none; stroke-linecap: butt; stroke-dashoffset: 0; stroke-linejoin: miter; stroke-miterlimit: 2; fill-rule: nonzero; opacity: 1;" vector-effect="non-scaling-stroke" d="M801.6477633337578,158.3054450994682 L751.2913872704306,158.3054450994682 L671.4958990470045,343.8923626935424 L723.6599398920918,343.8923626935424 L737.8630203202099,307.8354758466937 L752.8408142262256,269.1273473199296 L776.0822185631456,209.73953368982595 L799.3236229000659,269.1273473199296 L814.3014168060815,307.8354758466937 L828.5044972341994,343.8923626935424 L881.7014893831505,343.8923626935424 z" stroke-linecap="round" stroke-width="0" id="svg_8" stroke="#000000" stroke-opacity="1" fill="#0b0bd5" fill-opacity="1"/>
</g>
		<g id="icon" stroke-width="0" stroke="#000000" stroke-opacity="1" class="" fill="#0b0bd5" fill-opacity="1">
</g>

<g id="svg_9">
<g style="" stroke-width="NaN" id="svg_10">
</g>
</g><path fill="" fill-opacity="1" stroke="none" stroke-opacity="1" stroke-width="1" stroke-dasharray="none" stroke-linejoin="miter" stroke-linecap="butt" stroke-dashoffset="" fill-rule="nonzero" opacity="1" marker-start="" marker-mid="" marker-end="" d="M63,141 C63,141 63,141 63,141 C63,141 63,141 63,141 C63,141 63,141 63,141 C63,141 63,141 63,141 Z" id="svg_11"/></g></svg>